%TF.GenerationSoftware,KiCad,Pcbnew,(5.1.12)-1*%
%TF.CreationDate,2022-11-28T15:07:04-05:00*%
%TF.ProjectId,Acceso,41636365-736f-42e6-9b69-6361645f7063,rev?*%
%TF.SameCoordinates,Original*%
%TF.FileFunction,Soldermask,Top*%
%TF.FilePolarity,Negative*%
%FSLAX46Y46*%
G04 Gerber Fmt 4.6, Leading zero omitted, Abs format (unit mm)*
G04 Created by KiCad (PCBNEW (5.1.12)-1) date 2022-11-28 15:07:04*
%MOMM*%
%LPD*%
G01*
G04 APERTURE LIST*
%ADD10O,1.905000X2.000000*%
%ADD11R,1.905000X2.000000*%
%ADD12C,1.665000*%
%ADD13R,1.665000X1.665000*%
%ADD14C,1.800000*%
%ADD15R,1.800000X1.800000*%
%ADD16C,2.600000*%
%ADD17R,2.600000X2.600000*%
%ADD18O,2.000000X1.905000*%
%ADD19R,2.000000X1.905000*%
%ADD20O,1.800000X1.800000*%
%ADD21R,1.700000X1.700000*%
G04 APERTURE END LIST*
D10*
%TO.C,U3*%
X13380000Y12850000D03*
X10840000Y12850000D03*
D11*
X8300000Y12850000D03*
%TD*%
D12*
%TO.C,U1*%
X-8380000Y-20250000D03*
X-5840000Y-20250000D03*
X-3300000Y-20250000D03*
X-760000Y-20250000D03*
X1780000Y-20250000D03*
X4320000Y-20250000D03*
X6860000Y-20250000D03*
X9400000Y-20250000D03*
X11940000Y-20250000D03*
X14480000Y-20250000D03*
X17020000Y-20250000D03*
X19560000Y-20250000D03*
X22100000Y-20250000D03*
X24640000Y-20250000D03*
X27180000Y-20250000D03*
X29720000Y-20250000D03*
X32260000Y-20250000D03*
D13*
X34800000Y-20250000D03*
D12*
X-8380000Y5150000D03*
X-5840000Y5150000D03*
X-3300000Y5150000D03*
X-760000Y5150000D03*
X1780000Y5150000D03*
X4320000Y5150000D03*
X6860000Y5150000D03*
X9400000Y5150000D03*
X11940000Y5150000D03*
X14480000Y5150000D03*
X17020000Y5150000D03*
X19560000Y5150000D03*
X22100000Y5150000D03*
X24640000Y5150000D03*
X27180000Y5150000D03*
X29720000Y5150000D03*
X32260000Y5150000D03*
D13*
X34800000Y5150000D03*
D12*
X-11000000Y5150000D03*
X-10980000Y-20250000D03*
%TD*%
D14*
%TO.C,C4*%
X20950000Y-31000000D03*
D15*
X20950000Y-33500000D03*
%TD*%
D14*
%TO.C,C3*%
X20650000Y15950000D03*
D15*
X20650000Y13450000D03*
%TD*%
D14*
%TO.C,C2*%
X10850000Y19550000D03*
D15*
X8350000Y19550000D03*
%TD*%
D14*
%TO.C,C1*%
X8850000Y-33250000D03*
D15*
X8850000Y-30750000D03*
%TD*%
D14*
%TO.C,D1*%
X47250000Y-10470000D03*
X47250000Y-7930000D03*
X47250000Y-5390000D03*
D15*
X47250000Y-2850000D03*
%TD*%
D16*
%TO.C,J5*%
X-4950000Y12820000D03*
D17*
X-4950000Y17900000D03*
%TD*%
D18*
%TO.C,U2*%
X33800000Y-33430000D03*
X33800000Y-30890000D03*
D19*
X33800000Y-28350000D03*
%TD*%
D20*
%TO.C,J4*%
X27450000Y18080000D03*
X27450000Y15540000D03*
D21*
X27450000Y13000000D03*
%TD*%
D20*
%TO.C,J3*%
X-3950000Y-33380000D03*
X-3950000Y-30840000D03*
D21*
X-3950000Y-28300000D03*
%TD*%
D20*
%TO.C,J2*%
X-9350000Y-33380000D03*
X-9350000Y-30840000D03*
D21*
X-9350000Y-28300000D03*
%TD*%
D20*
%TO.C,J1*%
X32700000Y18080000D03*
X32700000Y15540000D03*
D15*
X32700000Y13000000D03*
%TD*%
M02*
