%TF.GenerationSoftware,KiCad,Pcbnew,(5.1.12)-1*%
%TF.CreationDate,2022-11-28T15:07:04-05:00*%
%TF.ProjectId,Acceso,41636365-736f-42e6-9b69-6361645f7063,rev?*%
%TF.SameCoordinates,Original*%
%TF.FileFunction,Copper,L1,Top*%
%TF.FilePolarity,Positive*%
%FSLAX46Y46*%
G04 Gerber Fmt 4.6, Leading zero omitted, Abs format (unit mm)*
G04 Created by KiCad (PCBNEW (5.1.12)-1) date 2022-11-28 15:07:04*
%MOMM*%
%LPD*%
G01*
G04 APERTURE LIST*
%TA.AperFunction,ComponentPad*%
%ADD10O,1.905000X2.000000*%
%TD*%
%TA.AperFunction,ComponentPad*%
%ADD11R,1.905000X2.000000*%
%TD*%
%TA.AperFunction,ComponentPad*%
%ADD12C,1.665000*%
%TD*%
%TA.AperFunction,ComponentPad*%
%ADD13R,1.665000X1.665000*%
%TD*%
%TA.AperFunction,ComponentPad*%
%ADD14C,1.800000*%
%TD*%
%TA.AperFunction,ComponentPad*%
%ADD15R,1.800000X1.800000*%
%TD*%
%TA.AperFunction,ComponentPad*%
%ADD16C,2.600000*%
%TD*%
%TA.AperFunction,ComponentPad*%
%ADD17R,2.600000X2.600000*%
%TD*%
%TA.AperFunction,ComponentPad*%
%ADD18O,2.000000X1.905000*%
%TD*%
%TA.AperFunction,ComponentPad*%
%ADD19R,2.000000X1.905000*%
%TD*%
%TA.AperFunction,ComponentPad*%
%ADD20O,1.800000X1.800000*%
%TD*%
%TA.AperFunction,ComponentPad*%
%ADD21R,1.700000X1.700000*%
%TD*%
%TA.AperFunction,Conductor*%
%ADD22C,0.500000*%
%TD*%
G04 APERTURE END LIST*
D10*
%TO.P,U3,3*%
%TO.N,Vo5*%
X13380000Y12850000D03*
%TO.P,U3,2*%
%TO.N,GND*%
X10840000Y12850000D03*
D11*
%TO.P,U3,1*%
%TO.N,Net-(C2-Pad1)*%
X8300000Y12850000D03*
%TD*%
D12*
%TO.P,U1,37*%
%TO.N,Net-(U1-Pad37)*%
X-8380000Y-20250000D03*
%TO.P,U1,36*%
%TO.N,Net-(U1-Pad36)*%
X-5840000Y-20250000D03*
%TO.P,U1,35*%
%TO.N,Net-(U1-Pad35)*%
X-3300000Y-20250000D03*
%TO.P,U1,34*%
%TO.N,Net-(U1-Pad34)*%
X-760000Y-20250000D03*
%TO.P,U1,33*%
%TO.N,Net-(U1-Pad33)*%
X1780000Y-20250000D03*
%TO.P,U1,32*%
%TO.N,Net-(U1-Pad32)*%
X4320000Y-20250000D03*
%TO.P,U1,31*%
%TO.N,Net-(U1-Pad31)*%
X6860000Y-20250000D03*
%TO.P,U1,30*%
%TO.N,Net-(U1-Pad30)*%
X9400000Y-20250000D03*
%TO.P,U1,29*%
%TO.N,IO5*%
X11940000Y-20250000D03*
%TO.P,U1,28*%
%TO.N,IO18*%
X14480000Y-20250000D03*
%TO.P,U1,27*%
%TO.N,IO19*%
X17020000Y-20250000D03*
%TO.P,U1,26*%
%TO.N,GND*%
X19560000Y-20250000D03*
%TO.P,U1,25*%
%TO.N,Net-(U1-Pad25)*%
X22100000Y-20250000D03*
%TO.P,U1,24*%
%TO.N,Net-(U1-Pad24)*%
X24640000Y-20250000D03*
%TO.P,U1,23*%
%TO.N,Net-(U1-Pad23)*%
X27180000Y-20250000D03*
%TO.P,U1,22*%
%TO.N,Net-(U1-Pad22)*%
X29720000Y-20250000D03*
%TO.P,U1,21*%
%TO.N,Net-(U1-Pad21)*%
X32260000Y-20250000D03*
D13*
%TO.P,U1,20*%
%TO.N,GND*%
X34800000Y-20250000D03*
D12*
%TO.P,U1,18*%
%TO.N,Net-(U1-Pad18)*%
X-8380000Y5150000D03*
%TO.P,U1,17*%
%TO.N,Net-(U1-Pad17)*%
X-5840000Y5150000D03*
%TO.P,U1,16*%
%TO.N,Net-(U1-Pad16)*%
X-3300000Y5150000D03*
%TO.P,U1,15*%
%TO.N,Net-(U1-Pad15)*%
X-760000Y5150000D03*
%TO.P,U1,14*%
%TO.N,GND*%
X1780000Y5150000D03*
%TO.P,U1,13*%
%TO.N,Net-(U1-Pad13)*%
X4320000Y5150000D03*
%TO.P,U1,12*%
%TO.N,Net-(U1-Pad12)*%
X6860000Y5150000D03*
%TO.P,U1,11*%
%TO.N,Net-(U1-Pad11)*%
X9400000Y5150000D03*
%TO.P,U1,10*%
%TO.N,Net-(U1-Pad10)*%
X11940000Y5150000D03*
%TO.P,U1,9*%
%TO.N,Net-(U1-Pad9)*%
X14480000Y5150000D03*
%TO.P,U1,8*%
%TO.N,IO33*%
X17020000Y5150000D03*
%TO.P,U1,7*%
%TO.N,IO32*%
X19560000Y5150000D03*
%TO.P,U1,6*%
%TO.N,Net-(U1-Pad6)*%
X22100000Y5150000D03*
%TO.P,U1,5*%
%TO.N,Net-(U1-Pad5)*%
X24640000Y5150000D03*
%TO.P,U1,4*%
%TO.N,Net-(U1-Pad4)*%
X27180000Y5150000D03*
%TO.P,U1,3*%
%TO.N,Net-(U1-Pad3)*%
X29720000Y5150000D03*
%TO.P,U1,2*%
%TO.N,Net-(U1-Pad2)*%
X32260000Y5150000D03*
D13*
%TO.P,U1,1*%
%TO.N,Vo33*%
X34800000Y5150000D03*
D12*
%TO.P,U1,19*%
%TO.N,Net-(U1-Pad19)*%
X-11000000Y5150000D03*
%TO.P,U1,38*%
%TO.N,Net-(U1-Pad38)*%
X-10980000Y-20250000D03*
%TD*%
D14*
%TO.P,C4,2*%
%TO.N,GND*%
X20950000Y-31000000D03*
D15*
%TO.P,C4,1*%
%TO.N,Vo5*%
X20950000Y-33500000D03*
%TD*%
D14*
%TO.P,C3,2*%
%TO.N,GND*%
X20650000Y15950000D03*
D15*
%TO.P,C3,1*%
%TO.N,Vo5*%
X20650000Y13450000D03*
%TD*%
D14*
%TO.P,C2,2*%
%TO.N,GND*%
X10850000Y19550000D03*
D15*
%TO.P,C2,1*%
%TO.N,Net-(C2-Pad1)*%
X8350000Y19550000D03*
%TD*%
D14*
%TO.P,C1,2*%
%TO.N,GND*%
X8850000Y-33250000D03*
D15*
%TO.P,C1,1*%
%TO.N,Vo33*%
X8850000Y-30750000D03*
%TD*%
D14*
%TO.P,D1,4*%
%TO.N,IO5*%
X47250000Y-10470000D03*
%TO.P,D1,3*%
%TO.N,Vo33*%
X47250000Y-7930000D03*
%TO.P,D1,2*%
%TO.N,GND*%
X47250000Y-5390000D03*
D15*
%TO.P,D1,1*%
%TO.N,Net-(D1-Pad1)*%
X47250000Y-2850000D03*
%TD*%
D16*
%TO.P,J5,2*%
%TO.N,GND*%
X-4950000Y12820000D03*
D17*
%TO.P,J5,1*%
%TO.N,Net-(C2-Pad1)*%
X-4950000Y17900000D03*
%TD*%
D18*
%TO.P,U2,3*%
%TO.N,Vo5*%
X33800000Y-33430000D03*
%TO.P,U2,2*%
%TO.N,Vo33*%
X33800000Y-30890000D03*
D19*
%TO.P,U2,1*%
%TO.N,GND*%
X33800000Y-28350000D03*
%TD*%
D20*
%TO.P,J4,3*%
%TO.N,GND*%
X27450000Y18080000D03*
%TO.P,J4,2*%
%TO.N,Vo5*%
X27450000Y15540000D03*
D21*
%TO.P,J4,1*%
%TO.N,IO33*%
X27450000Y13000000D03*
%TD*%
D20*
%TO.P,J3,3*%
%TO.N,GND*%
X-3950000Y-33380000D03*
%TO.P,J3,2*%
%TO.N,Vo33*%
X-3950000Y-30840000D03*
D21*
%TO.P,J3,1*%
%TO.N,IO18*%
X-3950000Y-28300000D03*
%TD*%
D20*
%TO.P,J2,3*%
%TO.N,GND*%
X-9350000Y-33380000D03*
%TO.P,J2,2*%
%TO.N,Vo33*%
X-9350000Y-30840000D03*
D21*
%TO.P,J2,1*%
%TO.N,IO19*%
X-9350000Y-28300000D03*
%TD*%
D20*
%TO.P,J1,3*%
%TO.N,GND*%
X32700000Y18080000D03*
%TO.P,J1,2*%
%TO.N,Vo5*%
X32700000Y15540000D03*
D15*
%TO.P,J1,1*%
%TO.N,IO32*%
X32700000Y13000000D03*
%TD*%
D22*
%TO.N,IO5*%
X11940000Y-22190000D02*
X11940000Y-20250000D01*
X35850000Y-23350000D02*
X13100000Y-23350000D01*
X13100000Y-23350000D02*
X11940000Y-22190000D01*
X36200000Y-23000000D02*
X35850000Y-23350000D01*
X36200000Y-22950000D02*
X36200000Y-23000000D01*
X47250000Y-11900000D02*
X36200000Y-22950000D01*
X47250000Y-10470000D02*
X47250000Y-11900000D01*
%TO.N,GND*%
X1780000Y10715000D02*
X-2845000Y10715000D01*
X-2845000Y10715000D02*
X-4950000Y12820000D01*
X1780000Y10715000D02*
X1780000Y5150000D01*
X20250000Y-31000000D02*
X31150000Y-31000000D01*
X31150000Y-31000000D02*
X33800000Y-28350000D01*
X27450000Y18080000D02*
X24580000Y18080000D01*
X24580000Y18080000D02*
X22250000Y15750000D01*
X32700000Y18080000D02*
X27450000Y18080000D01*
X-9350000Y-33380000D02*
X-12975200Y-29754800D01*
X34800000Y-18963000D02*
X34800000Y-20250000D01*
X34800000Y-17840000D02*
X34800000Y-18963000D01*
X-3950000Y-33380000D02*
X-9350000Y-33380000D01*
X-2550000Y-33380000D02*
X-2420000Y-33250000D01*
X-2420000Y-33250000D02*
X8850000Y-33250000D01*
X-3950000Y-33380000D02*
X-2550000Y-33380000D01*
X22680000Y-14970000D02*
X37670000Y-14970000D01*
X19560000Y-18090000D02*
X22680000Y-14970000D01*
X37670000Y-14970000D02*
X34800000Y-17840000D01*
X47250000Y-5390000D02*
X37670000Y-14970000D01*
X16838400Y-16238400D02*
X14050000Y-13450000D01*
X14050000Y-13450000D02*
X-13450000Y-13450000D01*
X-13450000Y-13450000D02*
X-16800000Y-16800000D01*
X-16800000Y-25930000D02*
X-12975200Y-29754800D01*
X-16800000Y-16800000D02*
X-16800000Y-25930000D01*
X14050000Y-13450000D02*
X7000000Y-13450000D01*
X1780000Y-8230000D02*
X1780000Y5150000D01*
X7000000Y-13450000D02*
X1780000Y-8230000D01*
X16838400Y-16238400D02*
X16838400Y-16288400D01*
X19490000Y-18940000D02*
X19560000Y-18940000D01*
X16838400Y-16288400D02*
X19490000Y-18940000D01*
X19560000Y-18940000D02*
X19560000Y-18090000D01*
X19560000Y-20250000D02*
X19560000Y-18940000D01*
X8850000Y-33250000D02*
X12200000Y-33250000D01*
X14450000Y-31000000D02*
X20250000Y-31000000D01*
X12200000Y-33250000D02*
X14450000Y-31000000D01*
X10840000Y12850000D02*
X10840000Y11090000D01*
X10840000Y11090000D02*
X9550000Y9800000D01*
X2695000Y9800000D02*
X1780000Y10715000D01*
X9550000Y9800000D02*
X2695000Y9800000D01*
X11250000Y13260000D02*
X10840000Y12850000D01*
X10850000Y12860000D02*
X10840000Y12850000D01*
X10850000Y19550000D02*
X10850000Y12860000D01*
X10840000Y12850000D02*
X10840000Y11710000D01*
X10840000Y12850000D02*
X10840000Y13940000D01*
X12850000Y15950000D02*
X20650000Y15950000D01*
X10840000Y13940000D02*
X12850000Y15950000D01*
X20850000Y15750000D02*
X20650000Y15950000D01*
X22250000Y15750000D02*
X20850000Y15750000D01*
%TO.N,IO19*%
X-14950000Y-22150000D02*
X-9350000Y-27750000D01*
X-14950000Y-18400000D02*
X-14950000Y-22150000D01*
X-12100000Y-15550000D02*
X-14950000Y-18400000D01*
X12950000Y-15550000D02*
X-12100000Y-15550000D01*
X17020000Y-19620000D02*
X12950000Y-15550000D01*
X-9350000Y-27750000D02*
X-9350000Y-28300000D01*
X17020000Y-20250000D02*
X17020000Y-19620000D01*
%TO.N,IO18*%
X-9400000Y-22850000D02*
X-3950000Y-28300000D01*
X-13150000Y-21650000D02*
X-11950000Y-22850000D01*
X-13150000Y-18900000D02*
X-13150000Y-21650000D01*
X-12000000Y-17750000D02*
X-13150000Y-18900000D01*
X12000000Y-17750000D02*
X-12000000Y-17750000D01*
X-11950000Y-22850000D02*
X-9400000Y-22850000D01*
X13193500Y-18943500D02*
X12000000Y-17750000D01*
X13193500Y-18963500D02*
X13193500Y-18943500D01*
X14480000Y-20250000D02*
X13193500Y-18963500D01*
%TO.N,Vo33*%
X8850000Y-30750000D02*
X7450000Y-30750000D01*
X-3950000Y-30840000D02*
X7360000Y-30840000D01*
X7360000Y-30840000D02*
X7450000Y-30750000D01*
X-9350000Y-30840000D02*
X-3950000Y-30840000D01*
X8850000Y-30750000D02*
X9550000Y-30750000D01*
X13225000Y-27075000D02*
X14300000Y-26000000D01*
X9550000Y-30750000D02*
X13225000Y-27075000D01*
X13225000Y-27075000D02*
X13404300Y-26895700D01*
X14300000Y-26000000D02*
X14800000Y-25500000D01*
X14800000Y-25500000D02*
X35200000Y-25500000D01*
X33800000Y-30890000D02*
X34710000Y-30890000D01*
X34710000Y-30890000D02*
X36900000Y-28700000D01*
X36900000Y-27200000D02*
X35200000Y-25500000D01*
X36900000Y-28700000D02*
X36900000Y-27200000D01*
X50400000Y-9750000D02*
X48580000Y-7930000D01*
X50400000Y-12450000D02*
X50400000Y-9750000D01*
X37350000Y-25500000D02*
X50400000Y-12450000D01*
X48580000Y-7930000D02*
X47250000Y-7930000D01*
X35200000Y-25500000D02*
X37350000Y-25500000D01*
X43550000Y5150000D02*
X50452400Y-1752400D01*
X34800000Y5150000D02*
X43550000Y5150000D01*
X50452400Y-6057600D02*
X48580000Y-7930000D01*
X50452400Y-1752400D02*
X50452400Y-6057600D01*
%TO.N,Vo5*%
X32700000Y15540000D02*
X28850000Y15540000D01*
X27450000Y15540000D02*
X28850000Y15540000D01*
X33800000Y-33430000D02*
X21720000Y-33430000D01*
X21720000Y-33430000D02*
X21650000Y-33500000D01*
X20250000Y-33500000D02*
X21650000Y-33500000D01*
X49333300Y-17896700D02*
X49333300Y-17866700D01*
X27450000Y15540000D02*
X25490000Y15540000D01*
X25490000Y15540000D02*
X23350000Y13400000D01*
X23350000Y13400000D02*
X20750000Y13400000D01*
X33800000Y-33430000D02*
X36770000Y-33430000D01*
X36770000Y-33430000D02*
X40200000Y-30000000D01*
X40200000Y-27000000D02*
X49333300Y-17866700D01*
X40200000Y-30000000D02*
X40200000Y-27000000D01*
X13380000Y12850000D02*
X13380000Y12420000D01*
X20050000Y12850000D02*
X20650000Y13450000D01*
X13380000Y12850000D02*
X20050000Y12850000D01*
X52900000Y-14300000D02*
X49333300Y-17866700D01*
X39490000Y15540000D02*
X39525000Y15575000D01*
X52900000Y2200000D02*
X52900000Y-14300000D01*
X39525000Y15575000D02*
X52900000Y2200000D01*
X32700000Y15540000D02*
X39490000Y15540000D01*
%TO.N,IO32*%
X32700000Y11200000D02*
X32700000Y13000000D01*
X29850000Y8350000D02*
X32700000Y11200000D01*
X22760000Y8350000D02*
X29850000Y8350000D01*
X19560000Y5150000D02*
X22760000Y8350000D01*
%TO.N,IO33*%
X22860000Y10990000D02*
X17020000Y5150000D01*
X22860000Y10990000D02*
X25890000Y10990000D01*
X27450000Y12550000D02*
X27450000Y13000000D01*
X25890000Y10990000D02*
X27450000Y12550000D01*
%TO.N,Net-(C2-Pad1)*%
X-4950000Y17900000D02*
X-3150000Y17900000D01*
X8750000Y13300000D02*
X8300000Y12850000D01*
X8350000Y19550000D02*
X300000Y19550000D01*
X300000Y19550000D02*
X-1300000Y17950000D01*
X-3100000Y17950000D02*
X-3150000Y17900000D01*
X-1300000Y17950000D02*
X-3100000Y17950000D01*
X8300000Y19500000D02*
X8350000Y19550000D01*
X8300000Y12850000D02*
X8300000Y19500000D01*
%TD*%
M02*
