M48
; DRILL file {KiCad (5.1.12)-1} date 11/28/22 15:07:02
; FORMAT={-:-/ absolute / metric / decimal}
; #@! TF.CreationDate,2022-11-28T15:07:02-05:00
; #@! TF.GenerationSoftware,Kicad,Pcbnew,(5.1.12)-1
; #@! TF.FileFunction,Plated,1,2,PTH
FMAT,2
METRIC
T1C1.000
T2C1.100
T3C1.110
T4C1.300
%
G90
G05
T1
X-9.35Y-28.3
X-3.95Y-28.3
X8.85Y-33.25
X10.85Y19.55
X20.65Y15.95
X20.95Y-31.0
X27.45Y13.0
X32.7Y13.0
X47.25Y-5.39
X47.25Y-7.93
X47.25Y-10.47
T2
X-9.35Y-30.84
X-9.35Y-33.38
X-3.95Y-30.84
X-3.95Y-33.38
X8.3Y12.85
X8.35Y19.55
X8.85Y-30.75
X10.84Y12.85
X13.38Y12.85
X20.65Y13.45
X20.95Y-33.5
X27.45Y18.08
X27.45Y15.54
X32.7Y18.08
X32.7Y15.54
X33.8Y-28.35
X33.8Y-30.89
X33.8Y-33.43
X47.25Y-2.85
T3
X-11.0Y5.15
X-10.98Y-20.25
X-8.38Y5.15
X-8.38Y-20.25
X-5.84Y5.15
X-5.84Y-20.25
X-3.3Y5.15
X-3.3Y-20.25
X-0.76Y5.15
X-0.76Y-20.25
X1.78Y5.15
X1.78Y-20.25
X4.32Y5.15
X4.32Y-20.25
X6.86Y5.15
X6.86Y-20.25
X9.4Y5.15
X9.4Y-20.25
X11.94Y5.15
X11.94Y-20.25
X14.48Y5.15
X14.48Y-20.25
X17.02Y5.15
X17.02Y-20.25
X19.56Y5.15
X19.56Y-20.25
X22.1Y5.15
X22.1Y-20.25
X24.64Y5.15
X24.64Y-20.25
X27.18Y5.15
X27.18Y-20.25
X29.72Y5.15
X29.72Y-20.25
X32.26Y5.15
X32.26Y-20.25
X34.8Y5.15
X34.8Y-20.25
T4
X-4.95Y17.9
X-4.95Y12.82
T0
M30
